<mxfile host="65bd71144e">
    <diagram id="HnI3O9rPaiQhS3lCD7iH" name="Page-1">
        <mxGraphModel dx="-29573" dy="11115" grid="1" gridSize="10" guides="1" tooltips="1" connect="1" arrows="1" fold="1" page="1" pageScale="1" pageWidth="827" pageHeight="1169" math="0" shadow="0">
            <root>
                <mxCell id="0"/>
                <mxCell id="1" parent="0"/>
                <mxCell id="86SaQFVut-_eavQMEXjm-1" value="L2" style="rounded=0;whiteSpace=wrap;html=1;fontSize=40;strokeWidth=3;" parent="1" vertex="1">
                    <mxGeometry x="33120" y="-8020" width="360" height="780" as="geometry"/>
                </mxCell>
                <mxCell id="86SaQFVut-_eavQMEXjm-2" value="AI CORE" style="rounded=0;whiteSpace=wrap;html=1;fontSize=40;strokeWidth=3;" parent="1" vertex="1">
                    <mxGeometry x="33480" y="-8020" width="420" height="740" as="geometry"/>
                </mxCell>
                <mxCell id="86SaQFVut-_eavQMEXjm-3" value="DEC" style="rounded=0;whiteSpace=wrap;html=1;fontSize=40;strokeWidth=3;" parent="1" vertex="1">
                    <mxGeometry x="34900" y="-6360" width="440" height="400" as="geometry"/>
                </mxCell>
                <mxCell id="86SaQFVut-_eavQMEXjm-4" value="APU" style="rounded=0;whiteSpace=wrap;html=1;fontSize=40;strokeWidth=3;" parent="1" vertex="1">
                    <mxGeometry x="34900" y="-6980" width="440" height="540" as="geometry"/>
                </mxCell>
                <mxCell id="86SaQFVut-_eavQMEXjm-5" value="SOC-IO" style="rounded=0;whiteSpace=wrap;html=1;fontSize=40;strokeWidth=3;" parent="1" vertex="1">
                    <mxGeometry x="35148" y="-4960" width="120" height="160" as="geometry"/>
                </mxCell>
                <mxCell id="86SaQFVut-_eavQMEXjm-6" value="PCIE" style="rounded=0;whiteSpace=wrap;html=1;fontSize=40;strokeWidth=3;" parent="1" vertex="1">
                    <mxGeometry x="34680" y="-8020" width="220" height="340" as="geometry"/>
                </mxCell>
                <mxCell id="86SaQFVut-_eavQMEXjm-7" value="SOC-MGMT&amp;nbsp;" style="rounded=0;whiteSpace=wrap;html=1;fontSize=40;strokeWidth=3;" parent="1" vertex="1">
                    <mxGeometry x="34680" y="-7680" width="180" height="340" as="geometry"/>
                </mxCell>
                <mxCell id="86SaQFVut-_eavQMEXjm-8" value="&lt;font style=&quot;font-size: 40px;&quot;&gt;PVE&lt;/font&gt;" style="rounded=0;whiteSpace=wrap;html=1;strokeWidth=3;" parent="1" vertex="1">
                    <mxGeometry x="34900" y="-7940" width="440" height="960" as="geometry"/>
                </mxCell>
                <mxCell id="86SaQFVut-_eavQMEXjm-9" value="SDMA" style="rounded=0;whiteSpace=wrap;html=1;fontSize=35;strokeWidth=3;" parent="1" vertex="1">
                    <mxGeometry x="33160" y="-6420" width="640" height="40" as="geometry"/>
                </mxCell>
                <mxCell id="86SaQFVut-_eavQMEXjm-10" value="SDMA" style="rounded=0;whiteSpace=wrap;html=1;fontSize=35;strokeWidth=3;" parent="1" vertex="1">
                    <mxGeometry x="34100" y="-6420" width="620" height="40" as="geometry"/>
                </mxCell>
                <mxCell id="86SaQFVut-_eavQMEXjm-11" value="EAST&lt;br&gt;DDR 0" style="rounded=0;whiteSpace=wrap;html=1;fontSize=40;rotation=0;horizontal=0;strokeWidth=3;fillColor=#fff2cc;strokeColor=#d6b656;" parent="1" vertex="1">
                    <mxGeometry x="35380" y="-5480" width="100" height="680" as="geometry"/>
                </mxCell>
                <mxCell id="86SaQFVut-_eavQMEXjm-12" value="EAST&lt;br&gt;DDR_2" style="rounded=0;whiteSpace=wrap;html=1;fontSize=40;rotation=0;horizontal=0;strokeWidth=3;fillColor=#fff2cc;strokeColor=#d6b656;" parent="1" vertex="1">
                    <mxGeometry x="35380" y="-6320" width="100" height="680" as="geometry"/>
                </mxCell>
                <mxCell id="86SaQFVut-_eavQMEXjm-13" value="EAST&lt;br&gt;DDR 1" style="rounded=0;whiteSpace=wrap;html=1;fontSize=40;rotation=0;horizontal=0;strokeWidth=3;fillColor=#fff2cc;strokeColor=#d6b656;" parent="1" vertex="1">
                    <mxGeometry x="35380" y="-7160" width="100" height="680" as="geometry"/>
                </mxCell>
                <mxCell id="86SaQFVut-_eavQMEXjm-14" value="EAST&lt;br&gt;DDR 3" style="rounded=0;whiteSpace=wrap;html=1;fontSize=40;rotation=0;horizontal=0;strokeWidth=3;fillColor=#fff2cc;strokeColor=#d6b656;" parent="1" vertex="1">
                    <mxGeometry x="35380" y="-8000" width="100" height="680" as="geometry"/>
                </mxCell>
                <mxCell id="86SaQFVut-_eavQMEXjm-15" value="WEST&lt;br&gt;DDR 0" style="rounded=0;whiteSpace=wrap;html=1;fontSize=40;rotation=-180;horizontal=0;strokeWidth=3;fillColor=#dae8fc;strokeColor=#6c8ebf;" parent="1" vertex="1">
                    <mxGeometry x="32980" y="-5460" width="100" height="680" as="geometry"/>
                </mxCell>
                <mxCell id="86SaQFVut-_eavQMEXjm-16" value="WEST&lt;br&gt;DDR 2" style="rounded=0;whiteSpace=wrap;html=1;fontSize=40;rotation=-180;horizontal=0;strokeWidth=3;fillColor=#dae8fc;strokeColor=#6c8ebf;" parent="1" vertex="1">
                    <mxGeometry x="32980" y="-6320" width="100" height="680" as="geometry"/>
                </mxCell>
                <mxCell id="86SaQFVut-_eavQMEXjm-17" value="WEST&lt;br&gt;DDR 1" style="rounded=0;whiteSpace=wrap;html=1;fontSize=40;rotation=-180;horizontal=0;direction=east;strokeWidth=3;fillColor=#dae8fc;strokeColor=#6c8ebf;" parent="1" vertex="1">
                    <mxGeometry x="32980" y="-7160" width="100" height="680" as="geometry"/>
                </mxCell>
                <mxCell id="86SaQFVut-_eavQMEXjm-18" value="WEST&lt;br&gt;DDR 3" style="rounded=0;whiteSpace=wrap;html=1;fontSize=40;rotation=-180;horizontal=0;flipH=0;flipV=1;strokeWidth=3;fillColor=#dae8fc;strokeColor=#6c8ebf;" parent="1" vertex="1">
                    <mxGeometry x="32980" y="-8020" width="100" height="680" as="geometry"/>
                </mxCell>
                <mxCell id="86SaQFVut-_eavQMEXjm-19" value="AI CORE" style="rounded=0;whiteSpace=wrap;html=1;fontSize=40;strokeWidth=3;" parent="1" vertex="1">
                    <mxGeometry x="33480" y="-7200" width="400" height="740" as="geometry"/>
                </mxCell>
                <mxCell id="86SaQFVut-_eavQMEXjm-20" value="L2" style="rounded=0;whiteSpace=wrap;html=1;fontSize=40;strokeWidth=3;" parent="1" vertex="1">
                    <mxGeometry x="33120" y="-7240" width="360" height="780" as="geometry"/>
                </mxCell>
                <mxCell id="86SaQFVut-_eavQMEXjm-21" value="AI CORE" style="rounded=0;whiteSpace=wrap;html=1;fontSize=40;strokeWidth=3;" parent="1" vertex="1">
                    <mxGeometry x="33900" y="-8020" width="420" height="740" as="geometry"/>
                </mxCell>
                <mxCell id="86SaQFVut-_eavQMEXjm-22" value="L2" style="rounded=0;whiteSpace=wrap;html=1;fontSize=40;strokeWidth=3;" parent="1" vertex="1">
                    <mxGeometry x="34320" y="-8020" width="360" height="780" as="geometry"/>
                </mxCell>
                <mxCell id="86SaQFVut-_eavQMEXjm-23" value="AI CORE" style="rounded=0;whiteSpace=wrap;html=1;fontSize=40;strokeWidth=3;" parent="1" vertex="1">
                    <mxGeometry x="34040" y="-7200" width="420" height="740" as="geometry"/>
                </mxCell>
                <mxCell id="86SaQFVut-_eavQMEXjm-24" value="L2" style="rounded=0;whiteSpace=wrap;html=1;fontSize=40;strokeWidth=3;" parent="1" vertex="1">
                    <mxGeometry x="34460" y="-7240" width="360" height="780" as="geometry"/>
                </mxCell>
                <mxCell id="86SaQFVut-_eavQMEXjm-25" value="AI CORE" style="rounded=0;whiteSpace=wrap;html=1;fontSize=40;strokeWidth=3;" parent="1" vertex="1">
                    <mxGeometry x="33480" y="-6340" width="400" height="740" as="geometry"/>
                </mxCell>
                <mxCell id="86SaQFVut-_eavQMEXjm-26" value="AI CORE" style="rounded=0;whiteSpace=wrap;html=1;fontSize=40;strokeWidth=3;" parent="1" vertex="1">
                    <mxGeometry x="34040" y="-6340" width="420" height="740" as="geometry"/>
                </mxCell>
                <mxCell id="86SaQFVut-_eavQMEXjm-27" value="L2" style="rounded=0;whiteSpace=wrap;html=1;fontSize=40;strokeWidth=3;" parent="1" vertex="1">
                    <mxGeometry x="34460" y="-6360" width="360" height="800" as="geometry"/>
                </mxCell>
                <mxCell id="86SaQFVut-_eavQMEXjm-28" value="L2" style="rounded=0;whiteSpace=wrap;html=1;fontSize=40;strokeWidth=3;" parent="1" vertex="1">
                    <mxGeometry x="33120" y="-6340" width="360" height="780" as="geometry"/>
                </mxCell>
                <mxCell id="86SaQFVut-_eavQMEXjm-29" value="AI CORE" style="rounded=0;whiteSpace=wrap;html=1;fontSize=40;strokeWidth=3;" parent="1" vertex="1">
                    <mxGeometry x="33480" y="-5520" width="420" height="740" as="geometry"/>
                </mxCell>
                <mxCell id="86SaQFVut-_eavQMEXjm-30" value="L2" style="rounded=0;whiteSpace=wrap;html=1;fontSize=40;strokeWidth=3;" parent="1" vertex="1">
                    <mxGeometry x="33120" y="-5560" width="360" height="780" as="geometry"/>
                </mxCell>
                <mxCell id="86SaQFVut-_eavQMEXjm-31" value="AI CORE" style="rounded=0;whiteSpace=wrap;html=1;fontSize=40;strokeWidth=3;" parent="1" vertex="1">
                    <mxGeometry x="33900" y="-5520" width="420" height="740" as="geometry"/>
                </mxCell>
                <mxCell id="86SaQFVut-_eavQMEXjm-32" value="L2" style="rounded=0;whiteSpace=wrap;html=1;fontSize=40;strokeWidth=3;" parent="1" vertex="1">
                    <mxGeometry x="34320" y="-5560" width="360" height="780" as="geometry"/>
                </mxCell>
                <mxCell id="86SaQFVut-_eavQMEXjm-33" value="&lt;font style=&quot;font-size: 40px;&quot;&gt;PVE&lt;/font&gt;" style="rounded=0;whiteSpace=wrap;html=1;strokeWidth=3;" parent="1" vertex="1">
                    <mxGeometry x="34900" y="-5960" width="440" height="960" as="geometry"/>
                </mxCell>
                <mxCell id="86SaQFVut-_eavQMEXjm-34" value="&lt;font style=&quot;font-size: 40px;&quot;&gt;SYS-SPM&lt;/font&gt;" style="rounded=0;whiteSpace=wrap;html=1;strokeWidth=3;" parent="1" vertex="1">
                    <mxGeometry x="34680" y="-5560" width="220" height="780" as="geometry"/>
                </mxCell>
            </root>
        </mxGraphModel>
    </diagram>
</mxfile>
